# xmcd
# 
# Track frame offsets:
#     150
#     19383
#     34591
#     53538
#     71220
#     85653
#     106614
#     119271
#     137926
#     152385
#     171689
#     191204
# 
# Disc length: 2800
# 
# Revision: 0
# Processed by: cddbd v1.5.2PL0 Copyright (c) Steve Scherf et al.
# Submitted via: fre:ac v1.0.27
# 
DISCID=a00aee0c
DTITLE=Jason Miller - One More High One More Low
DYEAR=2013
DGENRE=Country
TTITLE0=Horns to Halos
TTITLE1=Cheyenne
TTITLE2=Cowboy Hippies
TTITLE3=Delray's Blues
TTITLE4=Onward Reverie
TTITLE5=Get Back to Graceland
TTITLE6=Outward She Shines
TTITLE7=One More High One More Low
TTITLE8=Gypsy Wind
TTITLE9=Took All the Guns
TTITLE10=Stand Up Deliver
TTITLE11=Jesus On A Train
EXTD=
EXTT0=
EXTT1=
EXTT2=
EXTT3=
EXTT4=
EXTT5=
EXTT6=
EXTT7=
EXTT8=
EXTT9=
EXTT10=
EXTT11=
PLAYORDER=
